<svg width="320" height="120" viewBox="0 0 320 120" fill="none" xmlns="http://www.w3.org/2000/svg">
<path d="M76 16H28C16.9543 16 8 24.9543 8 36V84C8 95.0457 16.9543 104 28 104H76C87.0457 104 96 95.0457 96 84V36C96 24.9543 87.0457 16 76 16Z" fill="#5B1FAF"/>
<path d="M66 60H38V80H66V60Z" fill="#8D46E8"/>
<path d="M68 56H36V60H68V56Z" fill="#3B0D63"/>
<path d="M39 60H36V76H39V60Z" fill="#3B0D63"/>
<path d="M68 60H65V76H68V60Z" fill="#3B0D63"/>
<path d="M46 80H42V86H46V80Z" fill="#2A0645"/>
<path d="M62 80H58V86H62V80Z" fill="#2A0645"/>
<path opacity="0.9" d="M56 62H42V74H56V62Z" fill="#A45BFF"/>
<path d="M53 38H50V48H53V38Z" fill="#31F7FF"/>
<path d="M57 41H47V44H57V41Z" fill="#31F7FF"/>
<path d="M66.5 36H64V44H66.5V36Z" fill="#FF6AD9"/>
<path d="M69.5 39H61.5V41.5H69.5V39Z" fill="#FF6AD9"/>
<path d="M42.5 34H40V41H42.5V34Z" fill="#FF9AF0"/>
<path d="M44.5 37H37.5V39.5H44.5V37Z" fill="#FF9AF0"/>
<path d="M118.528 46.9091H126.114L134.125 66.4545H134.466L142.477 46.9091H150.062V76H144.097V57.0653H143.855L136.327 75.858H132.264L124.736 56.9943H124.494V76H118.528V46.9091ZM164.96 76.4261C162.715 76.4261 160.783 75.9716 159.164 75.0625C157.554 74.1439 156.314 72.8466 155.442 71.1705C154.571 69.4848 154.136 67.4915 154.136 65.1903C154.136 62.946 154.571 60.9763 155.442 59.2812C156.314 57.5862 157.54 56.2652 159.121 55.3182C160.712 54.3712 162.578 53.8977 164.718 53.8977C166.157 53.8977 167.497 54.1297 168.738 54.5938C169.988 55.0483 171.077 55.7348 172.005 56.6534C172.942 57.572 173.672 58.7273 174.192 60.1193C174.713 61.5019 174.974 63.1212 174.974 64.9773V66.6392H156.55V62.8892H169.278C169.278 62.018 169.088 61.2462 168.71 60.5739C168.331 59.9015 167.805 59.3759 167.133 58.9972C166.47 58.6089 165.698 58.4148 164.817 58.4148C163.899 58.4148 163.085 58.6278 162.374 59.054C161.674 59.4706 161.124 60.0341 160.727 60.7443C160.329 61.4451 160.125 62.2263 160.116 63.0881V66.6534C160.116 67.733 160.315 68.6657 160.712 69.4517C161.12 70.2377 161.692 70.8438 162.431 71.2699C163.17 71.696 164.046 71.9091 165.059 71.9091C165.731 71.9091 166.347 71.8144 166.906 71.625C167.464 71.4356 167.942 71.1515 168.34 70.7727C168.738 70.3939 169.041 69.9299 169.249 69.3807L174.846 69.75C174.562 71.0947 173.979 72.2689 173.099 73.2727C172.228 74.267 171.101 75.0436 169.718 75.6023C168.345 76.1515 166.759 76.4261 164.96 76.4261ZM178.923 76V54.1818H184.69V58.0312H184.945C185.4 56.7528 186.157 55.7443 187.218 55.0057C188.279 54.267 189.548 53.8977 191.025 53.8977C192.521 53.8977 193.795 54.2718 194.846 55.0199C195.897 55.7585 196.598 56.7623 196.948 58.0312H197.175C197.621 56.7812 198.425 55.7822 199.59 55.0341C200.764 54.2765 202.152 53.8977 203.752 53.8977C205.788 53.8977 207.441 54.5464 208.71 55.8438C209.988 57.1316 210.627 58.9593 210.627 61.3267V76H204.59V62.5199C204.59 61.3078 204.268 60.3987 203.624 59.7926C202.98 59.1866 202.175 58.8835 201.21 58.8835C200.111 58.8835 199.254 59.2339 198.638 59.9347C198.023 60.6259 197.715 61.5398 197.715 62.6761V76H191.849V62.392C191.849 61.322 191.541 60.4697 190.925 59.8352C190.319 59.2008 189.519 58.8835 188.525 58.8835C187.853 58.8835 187.246 59.054 186.707 59.3949C186.176 59.7263 185.755 60.1951 185.442 60.8011C185.13 61.3977 184.974 62.0985 184.974 62.9034V76H178.923ZM225.35 76.4261C223.106 76.4261 221.174 75.9716 219.555 75.0625C217.945 74.1439 216.704 72.8466 215.833 71.1705C214.962 69.4848 214.526 67.4915 214.526 65.1903C214.526 62.946 214.962 60.9763 215.833 59.2812C216.704 57.5862 217.931 56.2652 219.512 55.3182C221.103 54.3712 222.969 53.8977 225.109 53.8977C226.548 53.8977 227.888 54.1297 229.129 54.5938C230.379 55.0483 231.468 55.7348 232.396 56.6534C233.333 57.572 234.062 58.7273 234.583 60.1193C235.104 61.5019 235.364 63.1212 235.364 64.9773V66.6392H216.941V62.8892H229.668C229.668 62.018 229.479 61.2462 229.1 60.5739C228.721 59.9015 228.196 59.3759 227.523 58.9972C226.861 58.6089 226.089 58.4148 225.208 58.4148C224.29 58.4148 223.475 58.6278 222.765 59.054C222.064 59.4706 221.515 60.0341 221.117 60.7443C220.719 61.4451 220.516 62.2263 220.506 63.0881V66.6534C220.506 67.733 220.705 68.6657 221.103 69.4517C221.51 70.2377 222.083 70.8438 222.822 71.2699C223.56 71.696 224.436 71.9091 225.45 71.9091C226.122 71.9091 226.737 71.8144 227.296 71.625C227.855 71.4356 228.333 71.1515 228.731 70.7727C229.129 70.3939 229.432 69.9299 229.64 69.3807L235.237 69.75C234.952 71.0947 234.37 72.2689 233.489 73.2727C232.618 74.267 231.491 75.0436 230.109 75.6023C228.736 76.1515 227.149 76.4261 225.35 76.4261ZM239.427 76V46.9091H250.904C253.111 46.9091 254.99 47.3305 256.543 48.1733C258.096 49.0066 259.28 50.1667 260.094 51.6534C260.918 53.1307 261.33 54.8352 261.33 56.767C261.33 58.6989 260.914 60.4034 260.08 61.8807C259.247 63.358 258.04 64.5085 256.458 65.3324C254.886 66.1562 252.983 66.5682 250.748 66.5682H243.433V61.6392H249.754C250.937 61.6392 251.913 61.4356 252.68 61.0284C253.456 60.6117 254.034 60.0388 254.413 59.3097C254.801 58.571 254.995 57.7235 254.995 56.767C254.995 55.8011 254.801 54.9583 254.413 54.2386C254.034 53.5095 253.456 52.946 252.68 52.5483C251.903 52.1411 250.918 51.9375 249.725 51.9375H245.577V76H239.427ZM274.718 76.4261C272.512 76.4261 270.603 75.9574 268.994 75.0199C267.393 74.0729 266.157 72.7566 265.286 71.071C264.415 69.3759 263.979 67.411 263.979 65.1761C263.979 62.9223 264.415 60.9527 265.286 59.267C266.157 57.572 267.393 56.2557 268.994 55.3182C270.603 54.3712 272.512 53.8977 274.718 53.8977C276.924 53.8977 278.828 54.3712 280.428 55.3182C282.038 56.2557 283.279 57.572 284.15 59.267C285.021 60.9527 285.457 62.9223 285.457 65.1761C285.457 67.411 285.021 69.3759 284.15 71.071C283.279 72.7566 282.038 74.0729 280.428 75.0199C278.828 75.9574 276.924 76.4261 274.718 76.4261ZM274.746 71.7386C275.75 71.7386 276.588 71.4545 277.261 70.8864C277.933 70.3087 278.44 69.5227 278.781 68.5284C279.131 67.5341 279.306 66.4025 279.306 65.1335C279.306 63.8646 279.131 62.733 278.781 61.7386C278.44 60.7443 277.933 59.9583 277.261 59.3807C276.588 58.803 275.75 58.5142 274.746 58.5142C273.733 58.5142 272.881 58.803 272.19 59.3807C271.508 59.9583 270.992 60.7443 270.641 61.7386C270.3 62.733 270.13 63.8646 270.13 65.1335C270.13 66.4025 270.3 67.5341 270.641 68.5284C270.992 69.5227 271.508 70.3087 272.19 70.8864C272.881 71.4545 273.733 71.7386 274.746 71.7386ZM300.996 54.1818V58.7273H287.857V54.1818H300.996ZM290.84 48.9545H296.891V69.2955C296.891 69.8542 296.977 70.2898 297.147 70.6023C297.317 70.9053 297.554 71.1184 297.857 71.2415C298.17 71.3646 298.53 71.4261 298.937 71.4261C299.221 71.4261 299.505 71.4025 299.789 71.3551C300.073 71.2983 300.291 71.2557 300.442 71.2273L301.394 75.7301C301.091 75.8248 300.665 75.9337 300.116 76.0568C299.567 76.1894 298.899 76.2699 298.113 76.2983C296.655 76.3551 295.376 76.161 294.278 75.7159C293.189 75.2708 292.341 74.5795 291.735 73.642C291.129 72.7045 290.831 71.5208 290.84 70.0909V48.9545Z" fill="#25052F"/>
<path d="M116.528 44.9091H124.114L132.125 64.4545H132.466L140.477 44.9091H148.062V74H142.097V55.0653H141.855L134.327 73.858H130.264L122.736 54.9943H122.494V74H116.528V44.9091ZM162.96 74.4261C160.715 74.4261 158.783 73.9716 157.164 73.0625C155.554 72.1439 154.314 70.8466 153.442 69.1705C152.571 67.4848 152.136 65.4915 152.136 63.1903C152.136 60.946 152.571 58.9763 153.442 57.2812C154.314 55.5862 155.54 54.2652 157.121 53.3182C158.712 52.3712 160.578 51.8977 162.718 51.8977C164.157 51.8977 165.497 52.1297 166.738 52.5938C167.988 53.0483 169.077 53.7348 170.005 54.6534C170.942 55.572 171.672 56.7273 172.192 58.1193C172.713 59.5019 172.974 61.1212 172.974 62.9773V64.6392H154.55V60.8892H167.278C167.278 60.018 167.088 59.2462 166.71 58.5739C166.331 57.9015 165.805 57.3759 165.133 56.9972C164.47 56.6089 163.698 56.4148 162.817 56.4148C161.899 56.4148 161.085 56.6278 160.374 57.054C159.674 57.4706 159.124 58.0341 158.727 58.7443C158.329 59.4451 158.125 60.2263 158.116 61.0881V64.6534C158.116 65.733 158.315 66.6657 158.712 67.4517C159.12 68.2377 159.692 68.8438 160.431 69.2699C161.17 69.696 162.046 69.9091 163.059 69.9091C163.731 69.9091 164.347 69.8144 164.906 69.625C165.464 69.4356 165.942 69.1515 166.34 68.7727C166.738 68.3939 167.041 67.9299 167.249 67.3807L172.846 67.75C172.562 69.0947 171.979 70.2689 171.099 71.2727C170.228 72.267 169.101 73.0436 167.718 73.6023C166.345 74.1515 164.759 74.4261 162.96 74.4261ZM176.923 74V52.1818H182.69V56.0312H182.945C183.4 54.7528 184.157 53.7443 185.218 53.0057C186.279 52.267 187.548 51.8977 189.025 51.8977C190.521 51.8977 191.795 52.2718 192.846 53.0199C193.897 53.7585 194.598 54.7623 194.948 56.0312H195.175C195.621 54.7812 196.425 53.7822 197.59 53.0341C198.764 52.2765 200.152 51.8977 201.752 51.8977C203.788 51.8977 205.441 52.5464 206.71 53.8438C207.988 55.1316 208.627 56.9593 208.627 59.3267V74H202.59V60.5199C202.59 59.3078 202.268 58.3987 201.624 57.7926C200.98 57.1866 200.175 56.8835 199.21 56.8835C198.111 56.8835 197.254 57.2339 196.638 57.9347C196.023 58.6259 195.715 59.5398 195.715 60.6761V74H189.849V60.392C189.849 59.322 189.541 58.4697 188.925 57.8352C188.319 57.2008 187.519 56.8835 186.525 56.8835C185.853 56.8835 185.246 57.054 184.707 57.3949C184.176 57.7263 183.755 58.1951 183.442 58.8011C183.13 59.3977 182.974 60.0985 182.974 60.9034V74H176.923ZM223.35 74.4261C221.106 74.4261 219.174 73.9716 217.555 73.0625C215.945 72.1439 214.704 70.8466 213.833 69.1705C212.962 67.4848 212.526 65.4915 212.526 63.1903C212.526 60.946 212.962 58.9763 213.833 57.2812C214.704 55.5862 215.931 54.2652 217.512 53.3182C219.103 52.3712 220.969 51.8977 223.109 51.8977C224.548 51.8977 225.888 52.1297 227.129 52.5938C228.379 53.0483 229.468 53.7348 230.396 54.6534C231.333 55.572 232.062 56.7273 232.583 58.1193C233.104 59.5019 233.364 61.1212 233.364 62.9773V64.6392H214.941V60.8892H227.668C227.668 60.018 227.479 59.2462 227.1 58.5739C226.721 57.9015 226.196 57.3759 225.523 56.9972C224.861 56.6089 224.089 56.4148 223.208 56.4148C222.29 56.4148 221.475 56.6278 220.765 57.054C220.064 57.4706 219.515 58.0341 219.117 58.7443C218.719 59.4451 218.516 60.2263 218.506 61.0881V64.6534C218.506 65.733 218.705 66.6657 219.103 67.4517C219.51 68.2377 220.083 68.8438 220.822 69.2699C221.56 69.696 222.436 69.9091 223.45 69.9091C224.122 69.9091 224.737 69.8144 225.296 69.625C225.855 69.4356 226.333 69.1515 226.731 68.7727C227.129 68.3939 227.432 67.9299 227.64 67.3807L233.237 67.75C232.952 69.0947 232.37 70.2689 231.489 71.2727C230.618 72.267 229.491 73.0436 228.109 73.6023C226.736 74.1515 225.149 74.4261 223.35 74.4261ZM237.427 74V44.9091H248.904C251.111 44.9091 252.99 45.3305 254.543 46.1733C256.096 47.0066 257.28 48.1667 258.094 49.6534C258.918 51.1307 259.33 52.8352 259.33 54.767C259.33 56.6989 258.914 58.4034 258.08 59.8807C257.247 61.358 256.04 62.5085 254.458 63.3324C252.886 64.1562 250.983 64.5682 248.748 64.5682H241.433V59.6392H247.754C248.937 59.6392 249.913 59.4356 250.68 59.0284C251.456 58.6117 252.034 58.0388 252.413 57.3097C252.801 56.571 252.995 55.7235 252.995 54.767C252.995 53.8011 252.801 52.9583 252.413 52.2386C252.034 51.5095 251.456 50.946 250.68 50.5483C249.903 50.1411 248.918 49.9375 247.725 49.9375H243.577V74H237.427ZM272.718 74.4261C270.512 74.4261 268.603 73.9574 266.994 73.0199C265.393 72.0729 264.157 70.7566 263.286 69.071C262.415 67.3759 261.979 65.411 261.979 63.1761C261.979 60.9223 262.415 58.9527 263.286 57.267C264.157 55.572 265.393 54.2557 266.994 53.3182C268.603 52.3712 270.512 51.8977 272.718 51.8977C274.924 51.8977 276.828 52.3712 278.428 53.3182C280.038 54.2557 281.279 55.572 282.15 57.267C283.021 58.9527 283.457 60.9223 283.457 63.1761C283.457 65.411 283.021 67.3759 282.15 69.071C281.279 70.7566 280.038 72.0729 278.428 73.0199C276.828 73.9574 274.924 74.4261 272.718 74.4261ZM272.746 69.7386C273.75 69.7386 274.588 69.4545 275.261 68.8864C275.933 68.3087 276.44 67.5227 276.781 66.5284C277.131 65.5341 277.306 64.4025 277.306 63.1335C277.306 61.8646 277.131 60.733 276.781 59.7386C276.44 58.7443 275.933 57.9583 275.261 57.3807C274.588 56.803 273.75 56.5142 272.746 56.5142C271.733 56.5142 270.881 56.803 270.19 57.3807C269.508 57.9583 268.992 58.7443 268.641 59.7386C268.3 60.733 268.13 61.8646 268.13 63.1335C268.13 64.4025 268.3 65.5341 268.641 66.5284C268.992 67.5227 269.508 68.3087 270.19 68.8864C270.881 69.4545 271.733 69.7386 272.746 69.7386ZM298.996 52.1818V56.7273H285.857V52.1818H298.996ZM288.84 46.9545H294.891V67.2955C294.891 67.8542 294.977 68.2898 295.147 68.6023C295.317 68.9053 295.554 69.1184 295.857 69.2415C296.17 69.3646 296.53 69.4261 296.937 69.4261C297.221 69.4261 297.505 69.4025 297.789 69.3551C298.073 69.2983 298.291 69.2557 298.442 69.2273L299.394 73.7301C299.091 73.8248 298.665 73.9337 298.116 74.0568C297.567 74.1894 296.899 74.2699 296.113 74.2983C294.655 74.3551 293.376 74.161 292.278 73.7159C291.189 73.2708 290.341 72.5795 289.735 71.642C289.129 70.7045 288.831 69.5208 288.84 68.0909V46.9545Z" fill="#E8FFFF"/>
<path d="M116.528 44.9091V43.9091H115.528V44.9091H116.528ZM124.114 44.9091L125.039 44.5298L124.784 43.9091H124.114V44.9091ZM132.125 64.4545L131.2 64.8338L131.454 65.4545H132.125V64.4545ZM132.466 64.4545V65.4545H133.137L133.391 64.8338L132.466 64.4545ZM140.477 44.9091V43.9091H139.806L139.552 44.5298L140.477 44.9091ZM148.062 44.9091H149.062V43.9091H148.062V44.9091ZM148.062 74V75H149.062V74H148.062ZM142.097 74H141.097V75H142.097V74ZM142.097 55.0653H143.097V54.0653H142.097V55.0653ZM141.855 55.0653V54.0653H141.178L140.927 54.6935L141.855 55.0653ZM134.327 73.858V74.858H135.003L135.255 74.2298L134.327 73.858ZM130.264 73.858L129.335 74.2286L129.587 74.858H130.264V73.858ZM122.736 54.9943L123.665 54.6237L123.413 53.9943H122.736V54.9943ZM122.494 54.9943V53.9943H121.494V54.9943H122.494ZM122.494 74V75H123.494V74H122.494ZM116.528 74H115.528V75H116.528V74ZM116.528 44.9091V45.9091H124.114V44.9091V43.9091H116.528V44.9091ZM124.114 44.9091L123.188 45.2884L131.2 64.8338L132.125 64.4545L133.05 64.0753L125.039 44.5298L124.114 44.9091ZM132.125 64.4545V65.4545H132.466V64.4545V63.4545H132.125V64.4545ZM132.466 64.4545L133.391 64.8338L141.403 45.2884L140.477 44.9091L139.552 44.5298L131.541 64.0753L132.466 64.4545ZM140.477 44.9091V45.9091H148.062V44.9091V43.9091H140.477V44.9091ZM148.062 44.9091H147.062V74H148.062H149.062V44.9091H148.062ZM148.062 74V73H142.097V74V75H148.062V74ZM142.097 74H143.097V55.0653H142.097H141.097V74H142.097ZM142.097 55.0653V54.0653H141.855V55.0653V56.0653H142.097V55.0653ZM141.855 55.0653L140.927 54.6935L133.398 73.4861L134.327 73.858L135.255 74.2298L142.783 55.4372L141.855 55.0653ZM134.327 73.858V72.858H130.264V73.858V74.858H134.327V73.858ZM130.264 73.858L131.193 73.4873L123.665 54.6237L122.736 54.9943L121.807 55.365L129.335 74.2286L130.264 73.858ZM122.736 54.9943V53.9943H122.494V54.9943V55.9943H122.736V54.9943ZM122.494 54.9943H121.494V74H122.494H123.494V54.9943H122.494ZM122.494 74V73H116.528V74V75H122.494V74ZM116.528 74H117.528V44.9091H116.528H115.528V74H116.528ZM157.164 73.0625L156.668 73.9311L156.675 73.9345L157.164 73.0625ZM153.442 69.1705L152.554 69.6296L152.555 69.6316L153.442 69.1705ZM153.442 57.2812L152.553 56.8241L152.553 56.8241L153.442 57.2812ZM157.121 53.3182L156.61 52.4589L156.608 52.4602L157.121 53.3182ZM166.738 52.5938L166.388 53.5304L166.396 53.5335L166.738 52.5938ZM170.005 54.6534L169.301 55.3641L169.305 55.3677L170.005 54.6534ZM172.192 58.1193L171.256 58.4697L171.257 58.4718L172.192 58.1193ZM172.974 64.6392V65.6392H173.974V64.6392H172.974ZM154.55 64.6392H153.55V65.6392H154.55V64.6392ZM154.55 60.8892V59.8892H153.55V60.8892H154.55ZM167.278 60.8892V61.8892H168.278V60.8892H167.278ZM166.71 58.5739L165.838 59.0647L165.838 59.0647L166.71 58.5739ZM165.133 56.9972L164.627 57.86L164.635 57.8643L164.642 57.8684L165.133 56.9972ZM160.374 57.054L160.885 57.9135L160.889 57.9115L160.374 57.054ZM158.727 58.7443L159.596 59.2379L159.599 59.2329L158.727 58.7443ZM158.116 61.0881L157.116 61.0771V61.0881H158.116ZM158.712 67.4517L157.82 67.9032L157.824 67.9117L158.712 67.4517ZM164.906 69.625L164.585 68.6779L164.585 68.6779L164.906 69.625ZM166.34 68.7727L165.651 68.0486L165.651 68.0486L166.34 68.7727ZM167.249 67.3807L167.315 66.3829L166.577 66.3341L166.314 67.026L167.249 67.3807ZM172.846 67.75L173.824 67.9567L174.063 66.8281L172.912 66.7522L172.846 67.75ZM171.099 71.2727L170.347 70.6132L170.347 70.6137L171.099 71.2727ZM167.718 73.6023L168.089 74.5308L168.093 74.5294L167.718 73.6023ZM162.96 74.4261V73.4261C160.851 73.4261 159.095 72.9998 157.654 72.1905L157.164 73.0625L156.675 73.9345C158.472 74.9434 160.579 75.4261 162.96 75.4261V74.4261ZM157.164 73.0625L157.66 72.1939C156.22 71.3726 155.114 70.2182 154.33 68.7093L153.442 69.1705L152.555 69.6316C153.513 71.4749 154.888 72.9153 156.668 73.9311L157.164 73.0625ZM153.442 69.1705L154.331 68.7113C153.547 67.1948 153.136 65.3653 153.136 63.1903H152.136H151.136C151.136 65.6176 151.596 67.7749 152.554 69.6296L153.442 69.1705ZM152.136 63.1903H153.136C153.136 61.0769 153.545 59.2689 154.332 57.7384L153.442 57.2812L152.553 56.8241C151.597 58.6837 151.136 60.8152 151.136 63.1903H152.136ZM153.442 57.2812L154.332 57.7384C155.121 56.2034 156.22 55.0238 157.635 54.1761L157.121 53.3182L156.608 52.4602C154.86 53.5065 153.507 54.9689 152.553 56.8241L153.442 57.2812ZM157.121 53.3182L157.633 54.1775C159.046 53.3362 160.729 52.8977 162.718 52.8977V51.8977V50.8977C160.426 50.8977 158.378 51.4063 156.61 52.4589L157.121 53.3182ZM162.718 51.8977V52.8977C164.048 52.8977 165.268 53.1118 166.388 53.5304L166.738 52.5938L167.088 51.6571C165.726 51.1477 164.267 50.8977 162.718 50.8977V51.8977ZM166.738 52.5938L166.396 53.5335C167.513 53.9397 168.478 54.5491 169.302 55.3641L170.005 54.6534L170.708 53.9427C169.676 52.9206 168.463 52.1569 167.08 51.654L166.738 52.5938ZM170.005 54.6534L169.305 55.3677C170.125 56.171 170.78 57.1966 171.256 58.4697L172.192 58.1193L173.129 57.7689C172.564 56.2579 171.76 54.973 170.705 53.9391L170.005 54.6534ZM172.192 58.1193L171.257 58.4718C171.726 59.717 171.974 61.212 171.974 62.9773H172.974H173.974C173.974 61.0304 173.701 59.2868 173.128 57.7668L172.192 58.1193ZM172.974 62.9773H171.974V64.6392H172.974H173.974V62.9773H172.974ZM172.974 64.6392V63.6392H154.55V64.6392V65.6392H172.974V64.6392ZM154.55 64.6392H155.55V60.8892H154.55H153.55V64.6392H154.55ZM154.55 60.8892V61.8892H167.278V60.8892V59.8892H154.55V60.8892ZM167.278 60.8892H168.278C168.278 59.8686 168.054 58.9237 167.581 58.083L166.71 58.5739L165.838 59.0647C166.122 59.5687 166.278 60.1674 166.278 60.8892H167.278ZM166.71 58.5739L167.581 58.083C167.112 57.2515 166.455 56.5944 165.624 56.1259L165.133 56.9972L164.642 57.8684C165.155 58.1575 165.549 58.5515 165.838 59.0647L166.71 58.5739ZM165.133 56.9972L165.638 56.1343C164.801 55.6438 163.849 55.4148 162.817 55.4148V56.4148V57.4148C163.547 57.4148 164.139 57.5741 164.627 57.86L165.133 56.9972ZM162.817 56.4148V55.4148C161.738 55.4148 160.742 55.6672 159.86 56.1965L160.374 57.054L160.889 57.9115C161.427 57.5885 162.06 57.4148 162.817 57.4148V56.4148ZM160.374 57.054L159.863 56.1944C159.012 56.7007 158.338 57.392 157.854 58.2557L158.727 58.7443L159.599 59.2329C159.911 58.6762 160.335 58.2406 160.885 57.9135L160.374 57.054ZM158.727 58.7443L157.857 58.2507C157.37 59.1089 157.127 60.0582 157.116 61.0771L158.116 61.0881L159.116 61.0991C159.123 60.3945 159.288 59.7812 159.596 59.2379L158.727 58.7443ZM158.116 61.0881H157.116V64.6534H158.116H159.116V61.0881H158.116ZM158.116 64.6534H157.116C157.116 65.855 157.337 66.9492 157.82 67.9032L158.712 67.4517L159.605 67.0002C159.292 66.3822 159.116 65.6109 159.116 64.6534H158.116ZM158.712 67.4517L157.824 67.9117C158.316 68.8606 159.021 69.6107 159.931 70.1361L160.431 69.2699L160.931 68.4037C160.364 68.0768 159.923 67.6148 159.6 66.9917L158.712 67.4517ZM160.431 69.2699L159.931 70.1361C160.848 70.6651 161.903 70.9091 163.059 70.9091V69.9091V68.9091C162.188 68.9091 161.491 68.727 160.931 68.4037L160.431 69.2699ZM163.059 69.9091V70.9091C163.825 70.9091 164.551 70.801 165.227 70.5721L164.906 69.625L164.585 68.6779C164.143 68.8278 163.637 68.9091 163.059 68.9091V69.9091ZM164.906 69.625L165.227 70.5721C165.913 70.3395 166.519 69.9831 167.03 69.4969L166.34 68.7727L165.651 68.0486C165.366 68.3199 165.016 68.5317 164.585 68.6779L164.906 69.625ZM166.34 68.7727L167.03 69.4969C167.543 69.0077 167.927 68.4146 168.184 67.7353L167.249 67.3807L166.314 67.026C166.155 67.4452 165.932 67.7801 165.651 68.0486L166.34 68.7727ZM167.249 67.3807L167.183 68.3785L172.78 68.7478L172.846 67.75L172.912 66.7522L167.315 66.3829L167.249 67.3807ZM172.846 67.75L171.867 67.5433C171.618 68.7252 171.111 69.7423 170.347 70.6132L171.099 71.2727L171.85 71.9322C172.848 70.7956 173.506 69.4642 173.824 67.9567L172.846 67.75ZM171.099 71.2727L170.347 70.6137C169.591 71.476 168.6 72.1675 167.343 72.6751L167.718 73.6023L168.093 74.5294C169.602 73.9197 170.864 73.058 171.851 71.9317L171.099 71.2727ZM167.718 73.6023L167.347 72.6738C166.114 73.1668 164.658 73.4261 162.96 73.4261V74.4261V75.4261C164.859 75.4261 166.576 75.1363 168.089 74.5307L167.718 73.6023ZM176.923 74H175.923V75H176.923V74ZM176.923 52.1818V51.1818H175.923V52.1818H176.923ZM182.69 52.1818H183.69V51.1818H182.69V52.1818ZM182.69 56.0312H181.69V57.0312H182.69V56.0312ZM182.945 56.0312V57.0312H183.651L183.888 56.3663L182.945 56.0312ZM185.218 53.0057L184.647 52.1851L184.647 52.1851L185.218 53.0057ZM192.846 53.0199L192.266 53.8346L192.271 53.8381L192.846 53.0199ZM194.948 56.0312L193.984 56.2974L194.187 57.0312H194.948V56.0312ZM195.175 56.0312V57.0312H195.881L196.117 56.3667L195.175 56.0312ZM197.59 53.0341L198.131 53.8755L198.132 53.8744L197.59 53.0341ZM206.71 53.8438L205.995 54.543L206 54.5482L206.71 53.8438ZM208.627 74V75H209.627V74H208.627ZM202.59 74H201.59V75H202.59V74ZM201.624 57.7926L200.939 58.5208L200.939 58.5208L201.624 57.7926ZM196.638 57.9347L197.385 58.5997L197.39 58.5946L196.638 57.9347ZM195.715 74V75H196.715V74H195.715ZM189.849 74H188.849V75H189.849V74ZM188.925 57.8352L188.202 58.526L188.208 58.5315L188.925 57.8352ZM184.707 57.3949L185.237 58.2429L185.241 58.2404L184.707 57.3949ZM183.442 58.8011L184.328 59.2652L184.331 59.2594L183.442 58.8011ZM182.974 74V75H183.974V74H182.974ZM176.923 74H177.923V52.1818H176.923H175.923V74H176.923ZM176.923 52.1818V53.1818H182.69V52.1818V51.1818H176.923V52.1818ZM182.69 52.1818H181.69V56.0312H182.69H183.69V52.1818H182.69ZM182.69 56.0312V57.0312H182.945V56.0312V55.0312H182.69V56.0312ZM182.945 56.0312L183.888 56.3663C184.276 55.274 184.909 54.4395 185.79 53.8263L185.218 53.0057L184.647 52.1851C183.406 53.0491 182.524 54.2317 182.003 55.6962L182.945 56.0312ZM185.218 53.0057L185.79 53.8263C186.659 53.2206 187.722 52.8977 189.025 52.8977V51.8977V50.8977C187.373 50.8977 185.898 51.3135 184.647 52.1851L185.218 53.0057ZM189.025 51.8977V52.8977C190.348 52.8977 191.41 53.2255 192.266 53.8346L192.846 53.0199L193.426 52.2052C192.179 51.3181 190.695 50.8977 189.025 50.8977V51.8977ZM192.846 53.0199L192.271 53.8381C193.127 54.4398 193.694 55.246 193.984 56.2974L194.948 56.0312L195.912 55.7651C195.502 54.2786 194.667 53.0772 193.421 52.2017L192.846 53.0199ZM194.948 56.0312V57.0312H195.175V56.0312V55.0312H194.948V56.0312ZM195.175 56.0312L196.117 56.3667C196.485 55.3346 197.143 54.5096 198.131 53.8755L197.59 53.0341L197.05 52.1927C195.708 53.0548 194.756 54.2279 194.233 55.6958L195.175 56.0312ZM197.59 53.0341L198.132 53.8744C199.122 53.2356 200.315 52.8977 201.752 52.8977V51.8977V50.8977C199.988 50.8977 198.406 51.3174 197.048 52.1938L197.59 53.0341ZM201.752 51.8977V52.8977C203.555 52.8977 204.938 53.4623 205.995 54.543L206.71 53.8438L207.424 53.1445C205.944 51.6306 204.021 50.8977 201.752 50.8977V51.8977ZM206.71 53.8438L206 54.5482C207.041 55.5968 207.627 57.1396 207.627 59.3267H208.627H209.627C209.627 56.7789 208.935 54.6664 207.419 53.1393L206.71 53.8438ZM208.627 59.3267H207.627V74H208.627H209.627V59.3267H208.627ZM208.627 74V73H202.59V74V75H208.627V74ZM202.59 74H203.59V60.5199H202.59H201.59V74H202.59ZM202.59 60.5199H203.59C203.59 59.1376 203.22 57.9213 202.31 57.0644L201.624 57.7926L200.939 58.5208C201.316 58.876 201.59 59.4779 201.59 60.5199H202.59ZM201.624 57.7926L202.31 57.0644C201.462 56.267 200.405 55.8835 199.21 55.8835V56.8835V57.8835C199.946 57.8835 200.498 58.1062 200.939 58.5208L201.624 57.7926ZM199.21 56.8835V55.8835C197.88 55.8835 196.727 56.3189 195.887 57.2747L196.638 57.9347L197.39 58.5946C197.781 58.1489 198.342 57.8835 199.21 57.8835V56.8835ZM196.638 57.9347L195.892 57.2697C195.078 58.1834 194.715 59.3529 194.715 60.6761H195.715H196.715C196.715 59.7267 196.968 59.0685 197.385 58.5997L196.638 57.9347ZM195.715 60.6761H194.715V74H195.715H196.715V60.6761H195.715ZM195.715 74V73H189.849V74V75H195.715V74ZM189.849 74H190.849V60.392H189.849H188.849V74H189.849ZM189.849 60.392H190.849C190.849 59.1201 190.477 57.9979 189.643 57.1389L188.925 57.8352L188.208 58.5315C188.605 58.9415 188.849 59.5238 188.849 60.392H189.849ZM188.925 57.8352L189.649 57.1445C188.828 56.2854 187.752 55.8835 186.525 55.8835V56.8835V57.8835C187.286 57.8835 187.811 58.1161 188.202 58.526L188.925 57.8352ZM186.525 56.8835V55.8835C185.674 55.8835 184.881 56.1021 184.173 56.5494L184.707 57.3949L185.241 58.2404C185.612 58.0059 186.031 57.8835 186.525 57.8835V56.8835ZM184.707 57.3949L184.177 56.5469C183.48 56.9821 182.941 57.5919 182.554 58.3428L183.442 58.8011L184.331 59.2594C184.569 58.7982 184.872 58.4705 185.237 58.2429L184.707 57.3949ZM183.442 58.8011L182.557 58.3371C182.156 59.1023 181.974 59.9682 181.974 60.9034H182.974H183.974C183.974 60.2287 184.104 59.6931 184.328 59.2651L183.442 58.8011ZM182.974 60.9034H181.974V74H182.974H183.974V60.9034H182.974ZM182.974 74V73H176.923V74V75H182.974V74ZM217.555 73.0625L217.059 73.9311L217.065 73.9345L217.555 73.0625ZM213.833 69.1705L212.945 69.6296L212.946 69.6316L213.833 69.1705ZM213.833 57.2812L212.944 56.8241L212.944 56.8241L213.833 57.2812ZM217.512 53.3182L217.001 52.4589L216.998 52.4602L217.512 53.3182ZM227.129 52.5938L226.778 53.5304L226.787 53.5335L227.129 52.5938ZM230.396 54.6534L229.692 55.3641L229.696 55.3677L230.396 54.6534ZM232.583 58.1193L231.647 58.4697L231.647 58.4718L232.583 58.1193ZM233.364 64.6392V65.6392H234.364V64.6392H233.364ZM214.941 64.6392H213.941V65.6392H214.941V64.6392ZM214.941 60.8892V59.8892H213.941V60.8892H214.941ZM227.668 60.8892V61.8892H228.668V60.8892H227.668ZM227.1 58.5739L226.229 59.0647L226.229 59.0647L227.1 58.5739ZM225.523 56.9972L225.018 57.86L225.025 57.8643L225.033 57.8684L225.523 56.9972ZM220.765 57.054L221.276 57.9135L221.279 57.9115L220.765 57.054ZM219.117 58.7443L219.987 59.2379L219.99 59.2329L219.117 58.7443ZM218.506 61.0881L217.506 61.0771V61.0881H218.506ZM219.103 67.4517L218.211 67.9032L218.215 67.9117L219.103 67.4517ZM225.296 69.625L224.975 68.6779L224.975 68.6779L225.296 69.625ZM226.731 68.7727L226.041 68.0486L226.041 68.0486L226.731 68.7727ZM227.64 67.3807L227.706 66.3829L226.967 66.3341L226.705 67.026L227.64 67.3807ZM233.237 67.75L234.215 67.9567L234.453 66.8281L233.302 66.7522L233.237 67.75ZM231.489 71.2727L230.738 70.6132L230.737 70.6137L231.489 71.2727ZM228.109 73.6023L228.48 74.5308L228.483 74.5294L228.109 73.6023ZM223.35 74.4261V73.4261C221.242 73.4261 219.486 72.9998 218.044 72.1905L217.555 73.0625L217.065 73.9345C218.862 74.9434 220.97 75.4261 223.35 75.4261V74.4261ZM217.555 73.0625L218.05 72.1939C216.611 71.3726 215.505 70.2182 214.72 68.7093L213.833 69.1705L212.946 69.6316C213.904 71.4749 215.279 72.9153 217.059 73.9311L217.555 73.0625ZM213.833 69.1705L214.721 68.7113C213.938 67.1948 213.526 65.3653 213.526 63.1903H212.526H211.526C211.526 65.6176 211.986 67.7749 212.945 69.6296L213.833 69.1705ZM212.526 63.1903H213.526C213.526 61.0769 213.936 59.2689 214.722 57.7384L213.833 57.2812L212.944 56.8241C211.988 58.6837 211.526 60.8152 211.526 63.1903H212.526ZM213.833 57.2812L214.722 57.7384C215.511 56.2034 216.61 55.0238 218.026 54.1761L217.512 53.3182L216.998 52.4602C215.251 53.5065 213.897 54.9689 212.944 56.8241L213.833 57.2812ZM217.512 53.3182L218.024 54.1775C219.437 53.3362 221.12 52.8977 223.109 52.8977V51.8977V50.8977C220.817 50.8977 218.769 51.4063 217.001 52.4589L217.512 53.3182ZM223.109 51.8977V52.8977C224.439 52.8977 225.659 53.1118 226.778 53.5304L227.129 52.5938L227.479 51.6571C226.117 51.1477 224.657 50.8977 223.109 50.8977V51.8977ZM227.129 52.5938L226.787 53.5335C227.904 53.9397 228.869 54.5491 229.692 55.3641L230.396 54.6534L231.099 53.9427C230.066 52.9206 228.853 52.1569 227.47 51.654L227.129 52.5938ZM230.396 54.6534L229.696 55.3677C230.516 56.171 231.17 57.1966 231.647 58.4697L232.583 58.1193L233.52 57.7689C232.954 56.2579 232.151 54.973 231.095 53.9391L230.396 54.6534ZM232.583 58.1193L231.647 58.4718C232.116 59.717 232.364 61.212 232.364 62.9773H233.364H234.364C234.364 61.0304 234.092 59.2868 233.519 57.7668L232.583 58.1193ZM233.364 62.9773H232.364V64.6392H233.364H234.364V62.9773H233.364ZM233.364 64.6392V63.6392H214.941V64.6392V65.6392H233.364V64.6392ZM214.941 64.6392H215.941V60.8892H214.941H213.941V64.6392H214.941ZM214.941 60.8892V61.8892H227.668V60.8892V59.8892H214.941V60.8892ZM227.668 60.8892H228.668C228.668 59.8686 228.445 58.9237 227.971 58.083L227.1 58.5739L226.229 59.0647C226.513 59.5687 226.668 60.1674 226.668 60.8892H227.668ZM227.1 58.5739L227.971 58.083C227.503 57.2515 226.846 56.5944 226.014 56.1259L225.523 56.9972L225.033 57.8684C225.546 58.1575 225.94 58.5515 226.229 59.0647L227.1 58.5739ZM225.523 56.9972L226.029 56.1343C225.191 55.6438 224.24 55.4148 223.208 55.4148V56.4148V57.4148C223.938 57.4148 224.53 57.5741 225.018 57.86L225.523 56.9972ZM223.208 56.4148V55.4148C222.129 55.4148 221.133 55.6672 220.25 56.1965L220.765 57.054L221.279 57.9115C221.818 57.5885 222.45 57.4148 223.208 57.4148V56.4148ZM220.765 57.054L220.254 56.1944C219.402 56.7007 218.728 57.392 218.245 58.2557L219.117 58.7443L219.99 59.2329C220.301 58.6762 220.726 58.2406 221.276 57.9135L220.765 57.054ZM219.117 58.7443L218.248 58.2507C217.76 59.1089 217.518 60.0582 217.506 61.0771L218.506 61.0881L219.506 61.0991C219.514 60.3945 219.679 59.7812 219.987 59.2379L219.117 58.7443ZM218.506 61.0881H217.506V64.6534H218.506H219.506V61.0881H218.506ZM218.506 64.6534H217.506C217.506 65.855 217.728 66.9492 218.211 67.9032L219.103 67.4517L219.995 67.0002C219.683 66.3822 219.506 65.6109 219.506 64.6534H218.506ZM219.103 67.4517L218.215 67.9117C218.707 68.8606 219.411 69.6107 220.322 70.1361L220.822 69.2699L221.321 68.4037C220.755 68.0768 220.314 67.6148 219.991 66.9917L219.103 67.4517ZM220.822 69.2699L220.322 70.1361C221.239 70.6651 222.294 70.9091 223.45 70.9091V69.9091V68.9091C222.579 68.9091 221.882 68.727 221.321 68.4037L220.822 69.2699ZM223.45 69.9091V70.9091C224.216 70.9091 224.942 70.801 225.617 70.5721L225.296 69.625L224.975 68.6779C224.533 68.8278 224.028 68.9091 223.45 68.9091V69.9091ZM225.296 69.625L225.617 70.5721C226.303 70.3395 226.91 69.9831 227.42 69.4969L226.731 68.7727L226.041 68.0486C225.756 68.3199 225.407 68.5317 224.975 68.6779L225.296 69.625ZM226.731 68.7727L227.42 69.4969C227.934 69.0077 228.317 68.4146 228.575 67.7353L227.64 67.3807L226.705 67.026C226.546 67.4452 226.323 67.7801 226.041 68.0486L226.731 68.7727ZM227.64 67.3807L227.574 68.3785L233.171 68.7478L233.237 67.75L233.302 66.7522L227.706 66.3829L227.64 67.3807ZM233.237 67.75L232.258 67.5433C232.008 68.7252 231.502 69.7423 230.738 70.6132L231.489 71.2727L232.241 71.9322C233.238 70.7956 233.896 69.4642 234.215 67.9567L233.237 67.75ZM231.489 71.2727L230.737 70.6137C229.982 71.476 228.99 72.1675 227.734 72.6751L228.109 73.6023L228.483 74.5294C229.992 73.9197 231.255 73.058 232.241 71.9317L231.489 71.2727ZM228.109 73.6023L227.737 72.6738C226.505 73.1668 225.049 73.4261 223.35 73.4261V74.4261V75.4261C225.25 75.4261 226.966 75.1363 228.48 74.5307L228.109 73.6023ZM237.427 74H236.427V75H237.427V74ZM237.427 44.9091V43.9091H236.427V44.9091H237.427ZM254.543 46.1733L254.066 47.0522L254.071 47.0545L254.543 46.1733ZM258.094 49.6534L257.217 50.1338L257.221 50.1405L258.094 49.6534ZM254.458 63.3324L253.996 62.4455L253.994 62.4467L254.458 63.3324ZM241.433 64.5682H240.433V65.5682H241.433V64.5682ZM241.433 59.6392V58.6392H240.433V59.6392H241.433ZM250.68 59.0284L251.149 59.9117L251.153 59.9096L250.68 59.0284ZM252.413 57.3097L251.527 56.8444L251.525 56.8487L252.413 57.3097ZM252.413 52.2386L251.525 52.6996L251.529 52.7066L251.533 52.7134L252.413 52.2386ZM250.68 50.5483L250.215 51.434L250.224 51.4383L250.68 50.5483ZM243.577 49.9375V48.9375H242.577V49.9375H243.577ZM243.577 74V75H244.577V74H243.577ZM237.427 74H238.427V44.9091H237.427H236.427V74H237.427ZM237.427 44.9091V45.9091H248.904V44.9091V43.9091H237.427V44.9091ZM248.904 44.9091V45.9091C250.985 45.9091 252.692 46.3063 254.066 47.0522L254.543 46.1733L255.02 45.2944C253.289 44.3547 251.236 43.9091 248.904 43.9091V44.9091ZM254.543 46.1733L254.071 47.0545C255.46 47.8 256.5 48.824 257.217 50.1338L258.094 49.6534L258.972 49.173C258.06 47.5094 256.733 46.2132 255.016 45.2921L254.543 46.1733ZM258.094 49.6534L257.221 50.1405C257.951 51.4488 258.33 52.9812 258.33 54.767H259.33H260.33C260.33 52.6893 259.886 50.8126 258.968 49.1663L258.094 49.6534ZM259.33 54.767H258.33C258.33 56.551 257.947 58.0818 257.209 59.3894L258.08 59.8807L258.951 60.372C259.88 58.725 260.33 56.8467 260.33 54.767H259.33ZM258.08 59.8807L257.209 59.3894C256.476 60.6891 255.415 61.7063 253.996 62.4455L254.458 63.3324L254.92 64.2193C256.664 63.3108 258.018 62.0268 258.951 60.372L258.08 59.8807ZM254.458 63.3324L253.994 62.4467C252.598 63.1785 250.862 63.5682 248.748 63.5682V64.5682V65.5682C251.103 65.5682 253.175 65.134 254.922 64.2181L254.458 63.3324ZM248.748 64.5682V63.5682H241.433V64.5682V65.5682H248.748V64.5682ZM241.433 64.5682H242.433V59.6392H241.433H240.433V64.5682H241.433ZM241.433 59.6392V60.6392H247.754V59.6392V58.6392H241.433V59.6392ZM247.754 59.6392V60.6392C249.044 60.6392 250.194 60.4183 251.149 59.9117L250.68 59.0284L250.211 58.1452C249.631 58.453 248.83 58.6392 247.754 58.6392V59.6392ZM250.68 59.0284L251.153 59.9096C252.093 59.405 252.822 58.6915 253.3 57.7706L252.413 57.3097L251.525 56.8487C251.246 57.3861 250.82 57.8185 250.207 58.1472L250.68 59.0284ZM252.413 57.3097L253.298 57.7749C253.772 56.8731 253.995 55.8617 253.995 54.767H252.995H251.995C251.995 55.5852 251.83 56.269 251.527 56.8444L252.413 57.3097ZM252.995 54.767H253.995C253.995 53.6654 253.773 52.6538 253.293 51.7638L252.413 52.2386L251.533 52.7134C251.829 53.2629 251.995 53.9369 251.995 54.767H252.995ZM252.413 52.2386L253.3 51.7776C252.819 50.8524 252.085 50.1445 251.136 49.6583L250.68 50.5483L250.224 51.4383C250.828 51.7475 251.248 52.1665 251.525 52.6996L252.413 52.2386ZM250.68 50.5483L251.144 49.6627C250.182 49.1582 249.025 48.9375 247.725 48.9375V49.9375V50.9375C248.812 50.9375 249.624 51.124 250.215 51.4339L250.68 50.5483ZM247.725 49.9375V48.9375H243.577V49.9375V50.9375H247.725V49.9375ZM243.577 49.9375H242.577V74H243.577H244.577V49.9375H243.577ZM243.577 74V73H237.427V74V75H243.577V74ZM266.994 73.0199L266.484 73.8805L266.49 73.884L266.994 73.0199ZM263.286 69.071L262.397 69.5281L262.398 69.5302L263.286 69.071ZM263.286 57.267L264.175 57.7262L264.176 57.7242L263.286 57.267ZM266.994 53.3182L267.499 54.181L267.501 54.1801L266.994 53.3182ZM278.428 53.3182L277.919 54.1788L277.925 54.1823L278.428 53.3182ZM282.15 57.267L281.26 57.7242L281.261 57.7262L282.15 57.267ZM282.15 69.071L283.038 69.5302L283.039 69.5281L282.15 69.071ZM278.428 73.0199L278.934 73.8827L278.935 73.8818L278.428 73.0199ZM275.261 68.8864L275.906 69.6502L275.912 69.6449L275.261 68.8864ZM276.781 66.5284L275.837 66.196L275.835 66.2041L276.781 66.5284ZM276.781 59.7386L275.835 60.063L275.837 60.071L276.781 59.7386ZM270.19 57.3807L269.548 56.6133L269.543 56.6177L270.19 57.3807ZM268.641 59.7386L267.698 59.4063L267.695 59.4143L268.641 59.7386ZM268.641 66.5284L267.695 66.8527L267.698 66.8608L268.641 66.5284ZM270.19 68.8864L269.543 69.6493L269.549 69.6542L269.555 69.6589L270.19 68.8864ZM272.718 74.4261V73.4261C270.656 73.4261 268.928 72.9891 267.497 72.1557L266.994 73.0199L266.49 73.884C268.279 74.9257 270.368 75.4261 272.718 75.4261V74.4261ZM266.994 73.0199L267.503 72.1593C266.067 71.3099 264.961 70.1343 264.175 68.6119L263.286 69.071L262.398 69.5302C263.353 71.3789 264.719 72.8359 266.484 73.8805L266.994 73.0199ZM263.286 69.071L264.176 68.6139C263.389 67.0828 262.979 65.2794 262.979 63.1761H261.979H260.979C260.979 65.5426 261.441 67.6691 262.397 69.5281L263.286 69.071ZM261.979 63.1761H262.979C262.979 61.0523 263.389 59.2455 264.175 57.7262L263.286 57.267L262.398 56.8079C261.441 58.6598 260.979 60.7924 260.979 63.1761H261.979ZM263.286 57.267L264.176 57.7242C264.963 56.1931 266.067 55.0198 267.499 54.181L266.994 53.3182L266.488 52.4553C264.719 53.4916 263.352 54.9508 262.397 56.8099L263.286 57.267ZM266.994 53.3182L267.501 54.1801C268.931 53.3387 270.657 52.8977 272.718 52.8977V51.8977V50.8977C270.366 50.8977 268.276 51.4037 266.487 52.4562L266.994 53.3182ZM272.718 51.8977V52.8977C274.779 52.8977 276.499 53.3388 277.919 54.1788L278.428 53.3182L278.938 52.4576C277.156 51.4036 275.07 50.8977 272.718 50.8977V51.8977ZM278.428 53.3182L277.925 54.1823C279.366 55.0215 280.474 56.1947 281.26 57.7242L282.15 57.267L283.039 56.8099C282.083 54.9492 280.71 53.4899 278.932 52.454L278.428 53.3182ZM282.15 57.267L281.261 57.7262C282.047 59.2455 282.457 61.0523 282.457 63.1761H283.457H284.457C284.457 60.7924 283.995 58.6598 283.038 56.8079L282.15 57.267ZM283.457 63.1761H282.457C282.457 65.2794 282.047 67.0828 281.26 68.6139L282.15 69.071L283.039 69.5281C283.995 67.6691 284.457 65.5426 284.457 63.1761H283.457ZM282.15 69.071L281.261 68.6119C280.475 70.1328 279.366 71.3082 277.921 72.158L278.428 73.0199L278.935 73.8818C280.71 72.8376 282.082 71.3805 283.038 69.5302L282.15 69.071ZM278.428 73.0199L277.923 72.157C276.503 72.989 274.781 73.4261 272.718 73.4261V74.4261V75.4261C275.068 75.4261 277.153 74.9257 278.934 73.8827L278.428 73.0199ZM272.746 69.7386V70.7386C273.951 70.7386 275.028 70.3921 275.906 69.6502L275.261 68.8864L274.615 68.1226C274.148 68.517 273.549 68.7386 272.746 68.7386V69.7386ZM275.261 68.8864L275.912 69.6449C276.743 68.9313 277.339 67.9839 277.726 66.8527L276.781 66.5284L275.835 66.2041C275.541 67.0615 275.123 67.6861 274.609 68.1279L275.261 68.8864ZM276.781 66.5284L277.724 66.8608C278.118 65.7404 278.306 64.4933 278.306 63.1335H277.306H276.306C276.306 64.3116 276.143 65.3277 275.837 66.1961L276.781 66.5284ZM277.306 63.1335H278.306C278.306 61.7737 278.118 60.5266 277.724 59.4063L276.781 59.7386L275.837 60.071C276.143 60.9393 276.306 61.9554 276.306 63.1335H277.306ZM276.781 59.7386L277.726 59.4143C277.339 58.2831 276.743 57.3357 275.912 56.6222L275.261 57.3807L274.609 58.1392C275.123 58.581 275.541 59.2055 275.835 60.063L276.781 59.7386ZM275.261 57.3807L275.912 56.6222C275.035 55.8681 273.956 55.5142 272.746 55.5142V56.5142V57.5142C273.545 57.5142 274.142 57.738 274.609 58.1392L275.261 57.3807ZM272.746 56.5142V55.5142C271.53 55.5142 270.442 55.8666 269.548 56.6133L270.19 57.3807L270.831 58.148C271.32 57.7395 271.936 57.5142 272.746 57.5142V56.5142ZM270.19 57.3807L269.543 56.6177C268.703 57.3292 268.097 58.2749 267.698 59.4063L268.641 59.7386L269.584 60.071C269.887 59.2137 270.312 58.5875 270.836 58.1437L270.19 57.3807ZM268.641 59.7386L267.695 59.4143C267.312 60.5321 267.13 61.7764 267.13 63.1335H268.13H269.13C269.13 61.9528 269.289 60.9338 269.587 60.063L268.641 59.7386ZM268.13 63.1335H267.13C267.13 64.4907 267.312 65.735 267.695 66.8527L268.641 66.5284L269.587 66.2041C269.289 65.3332 269.13 64.3143 269.13 63.1335H268.13ZM268.641 66.5284L267.698 66.8608C268.097 67.9921 268.703 68.9379 269.543 69.6493L270.19 68.8864L270.836 68.1234C270.312 67.6795 269.887 67.0533 269.584 66.1961L268.641 66.5284ZM270.19 68.8864L269.555 69.6589C270.448 70.3935 271.534 70.7386 272.746 70.7386V69.7386V68.7386C271.932 68.7386 271.313 68.5156 270.825 68.1138L270.19 68.8864ZM298.996 52.1818H299.996V51.1818H298.996V52.1818ZM298.996 56.7273V57.7273H299.996V56.7273H298.996ZM285.857 56.7273H284.857V57.7273H285.857V56.7273ZM285.857 52.1818V51.1818H284.857V52.1818H285.857ZM288.84 46.9545V45.9545H287.84V46.9545H288.84ZM294.891 46.9545H295.891V45.9545H294.891V46.9545ZM295.147 68.6023L294.269 69.0812L294.275 69.0925L295.147 68.6023ZM295.857 69.2415L295.481 70.168L295.491 70.1719L295.857 69.2415ZM297.789 69.3551L297.953 70.3415L297.969 70.3389L297.985 70.3357L297.789 69.3551ZM298.442 69.2273L299.421 69.0205L299.219 68.0643L298.258 68.2444L298.442 69.2273ZM299.394 73.7301L299.692 74.6846L300.561 74.4133L300.373 73.5233L299.394 73.7301ZM298.116 74.0568L297.897 73.081L297.889 73.0828L297.881 73.0847L298.116 74.0568ZM296.113 74.2983L296.077 73.2989L296.074 73.2991L296.113 74.2983ZM292.278 73.7159L291.899 74.6416L291.902 74.6427L292.278 73.7159ZM289.735 71.642L290.575 71.0991L290.575 71.0991L289.735 71.642ZM288.84 68.0909L289.84 68.0975V68.0909H288.84ZM298.996 52.1818H297.996V56.7273H298.996H299.996V52.1818H298.996ZM298.996 56.7273V55.7273H285.857V56.7273V57.7273H298.996V56.7273ZM285.857 56.7273H286.857V52.1818H285.857H284.857V56.7273H285.857ZM285.857 52.1818V53.1818H298.996V52.1818V51.1818H285.857V52.1818ZM288.84 46.9545V47.9545H294.891V46.9545V45.9545H288.84V46.9545ZM294.891 46.9545H293.891V67.2955H294.891H295.891V46.9545H294.891ZM294.891 67.2955H293.891C293.891 67.9352 293.985 68.5611 294.269 69.0811L295.147 68.6023L296.025 68.1234C295.968 68.0184 295.891 67.7731 295.891 67.2955H294.891ZM295.147 68.6023L294.275 69.0925C294.549 69.5795 294.954 69.9541 295.481 70.1679L295.857 69.2415L296.234 68.315C296.154 68.2827 296.086 68.2311 296.019 68.112L295.147 68.6023ZM295.857 69.2415L295.491 70.1719C295.942 70.3496 296.43 70.4261 296.937 70.4261V69.4261V68.4261C296.629 68.4261 296.398 68.3796 296.224 68.3111L295.857 69.2415ZM296.937 69.4261V70.4261C297.277 70.4261 297.616 70.3978 297.953 70.3415L297.789 69.3551L297.625 68.3687C297.394 68.4071 297.165 68.4261 296.937 68.4261V69.4261ZM297.789 69.3551L297.985 70.3357C298.268 70.2791 298.481 70.2374 298.627 70.2101L298.442 69.2273L298.258 68.2444C298.101 68.2739 297.878 68.3175 297.593 68.3745L297.789 69.3551ZM298.442 69.2273L297.464 69.4341L298.416 73.9369L299.394 73.7301L300.373 73.5233L299.421 69.0205L298.442 69.2273ZM299.394 73.7301L299.096 72.7756C298.832 72.8582 298.437 72.9601 297.897 73.081L298.116 74.0568L298.334 75.0326C298.893 74.9073 299.351 74.7914 299.692 74.6846L299.394 73.7301ZM298.116 74.0568L297.881 73.0847C297.417 73.1968 296.82 73.2721 296.077 73.2989L296.113 74.2983L296.149 75.2976C296.978 75.2677 297.716 75.182 298.35 75.0289L298.116 74.0568ZM296.113 74.2983L296.074 73.2991C294.725 73.3516 293.594 73.1701 292.653 72.7891L292.278 73.7159L291.902 74.6427C293.159 75.1519 294.584 75.3586 296.152 75.2975L296.113 74.2983ZM292.278 73.7159L292.656 72.7902C291.746 72.4181 291.064 71.8553 290.575 71.0991L289.735 71.642L288.895 72.1849C289.619 73.3038 290.632 74.1235 291.899 74.6416L292.278 73.7159ZM289.735 71.642L290.575 71.0991C290.101 70.3656 289.832 69.3869 289.84 68.0975L288.84 68.0909L287.84 68.0843C287.83 69.6548 288.157 71.0435 288.895 72.1849L289.735 71.642ZM288.84 68.0909H289.84V46.9545H288.84H287.84V68.0909H288.84Z" fill="#16E3FF"/>
</svg>
